<?xml version="1.0" encoding="UTF-8"?>
<svg version="1.1" viewBox="225 600 424 524" width="431" height="431" xmlns="http://www.w3.org/2000/svg">
<path transform="translate(0)" d="m0 0h1724v1724h-1724z" fill="transparent"/>
<path transform="translate(318,901)" d="m0 0h101l39 1 1 1v19l-1 24-7 2-55 2h-85l-40-1-8-1-1-1-1-27v-17l1-1z" fill="#FDAD49"/>
<path transform="translate(358,755)" d="m0 0 13 2 80 14 9 2 1 2-1 39-24-2-43-5-32-5-40 6-57 6h-4l-1-25v-16l6-2 41-7 47-8z" fill="#FDAD49"/>
<path transform="translate(195,966)" d="m0 0 31 1 57 4 6 1 1 3v45l-2 1-39-4-27-3-27-4-1-1v-42z" fill="#FDAD49"/>
<path transform="translate(506,967)" d="m0 0h19v43l-28 3-10 2-30 3-16 2h-10v-48z" fill="#FDAD49"/>
<path transform="translate(487,904)" d="m0 0h29l54 1 24 1 2 1 1 35-1 1-19 1-47 1h-43z" fill="#FDAD49"/>
<path transform="translate(353,689)" d="m0 0h7l31 7 18 5-1 40-17-2-30-5-23 4-20 4h-5l-1-7-1-19v-15l9-3z" fill="#FCAC49"/>
<path transform="translate(350,825)" d="m0 0h15l35 3 3 1v45l-50 1-18 1h-18l-1-17v-29l8-2z" fill="#FDAD49"/>
<path transform="translate(322,974)" d="m0 0h55l21 1v50l-1 1-19 1h-39l-15-2-1-1-1-21z" fill="#FDAD49"/>
<path transform="translate(488,778)" d="m0 0 11 1 56 9 36 6 1 1 1 7v26h-10l-69-7-23-3-2-1z" fill="#FDAD49"/>
<path transform="translate(278,832)" d="m0 0h6l1 13 1 31-1 1-55 3-19 1h-17v-40l40-4z" fill="#FDAD49"/>
<path transform="translate(436,832)" d="m0 0 48 5 36 4 5 2v15l-1 23-77-4-11-1-1-1v-23z" fill="#FDAD49"/>
<path transform="translate(636,960)" d="m0 0h7l1 1 1 21v13l-3 2-88 9h-3v-41l32-2 27-1z" fill="#FDAD49"/>
<path transform="translate(278,707)" d="m0 0h3l1 9v33l-42 8-34 6-11 1v-36l35-9z" fill="#FCAC49"/>
<path transform="translate(439,707)" d="m0 0 19 4 48 12 18 5 1 5-1 31-41-7-42-8-3-3z" fill="#FDAD49"/>
<path transform="translate(551,844)" d="m0 0h9l54 6 26 2 1 7v26h-28l-55-2-7-1z" fill="#FDAD49"/>
<path transform="translate(549,734)" d="m0 0 8 1 27 6 52 13 1 1 1 8v23l-9-1-41-8-35-8-3-1-1-33z" fill="#FDAD49"/>
<path transform="translate(616,906)" d="m0 0 57 1 3 1v20l-1 12-12 1-25 1h-20l-1-1-1-15z" fill="#FDAD49"/>
<path transform="translate(614,798)" d="m0 0 30 5 27 5v32l-15-2-40-6-1-1-1-8z" fill="#FDAD49"/>
</svg>
